<svg preserveAspectRatio="xMidYMid meet" data-bbox="104 16 452.866 369.96" viewBox="104 16 452.866 369.96" height="544" width="816" xmlns="http://www.w3.org/2000/svg" data-type="shape" role="presentation" aria-hidden="true" aria-label="" style="fill:#691AFA">
    <g>
        <path d="M275.7 17.5c-.4.8-.6 18-.6 38.3l-.1 37 2.3.6c1.2.3 28.1.6 59.8.6 54.9 0 57.7.1 59.3 1.9 1.5 1.7 1.7 6.9 1.7 58.9 0 42.2.4 57.4 1.2 58.4 1 1.1 8.1 1.2 38.7.8l37.5-.5.2-97c.2-53.4 0-97.8-.3-98.8-.5-1.6-6.1-1.7-99.9-1.7-85.9 0-99.4.2-99.8 1.5z"></path>
        <path d="M142.2 61.3 104 99.5l.2 142.2c.2 78.2.7 142.5 1.1 143 1 1 342.7 1.8 354.5.8 4.6-.4 8.2-1.1 8-1.5-.4-1.1-34.9-36-58-58.8L392.3 308H290.1c-102.9 0-105.1-.1-107.3-3.4-.4-.6-.8-64-.8-140.8 0-76.8-.4-139.9-.8-140.2-.5-.3-18 16.7-39 37.7z"></path>
        <path d="M484.6 310.6c-.4 1.5-.4 18.8 0 38.6l.7 35.8 17.6-.2 17.6-.3 18.9-37.4c16.8-33.5 18.6-37.6 17-38.2-1.1-.4-17.5-.8-36.5-.8l-34.7-.1-.6 2.6z"></path>
    </g>
</svg>