<svg class="MuiSvgIcon-root MuiSvgIcon-fontSizeMedium mui-72prys" focusable="false" aria-hidden="true" viewBox="0 0 166 40" fill="none" xmlns="http://www.w3.org/2000/svg"><path d="M54.31 20.153c0-4.825 3.19-7.627 6.887-7.627 1.868 0 3.385.895 4.358 1.907l-1.75 2.101c-.74-.661-1.518-1.167-2.569-1.167-1.984 0-3.58 1.75-3.58 4.669 0 2.996 1.401 4.747 3.502 4.747 1.206 0 2.14-.584 2.84-1.362l1.752 2.062c-1.207 1.401-2.802 2.14-4.709 2.14-3.618 0-6.73-2.568-6.73-7.47ZM66.956 23.888V11.709h3.269v12.334c0 .7.31.934.583.934.117 0 .234 0 .39-.039l.388 2.413c-.35.155-.895.272-1.634.272-2.218 0-2.996-1.479-2.996-3.735ZM71.82 21.786c0-3.697 2.607-5.798 5.408-5.798 2.802 0 5.409 2.14 5.409 5.798 0 3.657-2.607 5.797-5.409 5.797-2.801 0-5.408-2.1-5.408-5.797Zm7.432 0c0-1.907-.662-3.152-2.024-3.152-1.361 0-2.023 1.245-2.023 3.152 0 1.906.662 3.151 2.023 3.151 1.323.04 2.024-1.206 2.024-3.151ZM84.115 23.148v-6.887h3.269v6.46c0 1.595.428 2.1 1.362 2.1.817 0 1.322-.35 1.984-1.206v-7.354h3.268v11.09h-2.684l-.234-1.518h-.078c-.934 1.09-1.984 1.79-3.463 1.79-2.412 0-3.424-1.712-3.424-4.475ZM95.672 21.787c0-3.619 2.257-5.798 4.591-5.798 1.206 0 1.985.467 2.724 1.167l-.117-1.673V11.71h3.269v15.642h-2.685l-.234-1.09h-.077c-.779.779-1.868 1.362-2.958 1.362-2.723 0-4.513-2.218-4.513-5.836Zm7.198 2.14v-4.553a2.781 2.781 0 0 0-1.829-.7c-1.05 0-1.984.973-1.984 3.074 0 2.179.74 3.151 2.023 3.151.662.04 1.245-.233 1.79-.972ZM108.045 19.997c0-4.747 2.685-7.47 6.615-7.47 3.929 0 6.614 2.762 6.614 7.47 0 4.747-2.685 7.587-6.614 7.587-3.93.04-6.615-2.84-6.615-7.587Zm9.844 0c0-2.918-1.245-4.63-3.229-4.63-1.985 0-3.23 1.712-3.23 4.63 0 3.113 1.245 4.903 3.23 4.903 1.945.039 3.229-1.79 3.229-4.903Zm-4.864 7.237 3.347-.35c.544 1.362 2.062 1.868 3.424 1.868.622 0 1.206-.117 1.634-.234l.584 2.413c-.545.272-1.44.467-2.569.467-3.229 0-5.408-1.751-6.42-4.164ZM123.103 23.148v-6.887h3.268v6.46c0 1.595.428 2.1 1.362 2.1.817 0 1.323-.35 1.984-1.206v-7.354h3.269v11.09h-2.685l-.234-1.518h-.077c-.934 1.09-1.985 1.79-3.463 1.79-2.413 0-3.424-1.712-3.424-4.475ZM134.542 21.786c0-3.58 2.568-5.798 5.214-5.798 3.152 0 4.708 2.296 4.708 5.33 0 .585-.078 1.168-.156 1.44h-6.614c.311 1.596 1.4 2.335 2.879 2.335.856 0 1.595-.272 2.412-.74l1.09 1.985c-1.128.778-2.607 1.245-3.93 1.245-3.152.04-5.603-2.1-5.603-5.797Zm7.159-1.206c0-1.207-.544-2.101-1.828-2.101-1.051 0-1.946.7-2.14 2.1h3.968ZM146.176 16.26h2.685l.233 1.946h.078c.817-1.478 2.023-2.218 3.152-2.218.622 0 1.011.078 1.322.234l-.544 2.84c-.389-.078-.701-.194-1.206-.194-.818 0-1.868.544-2.452 2.062v6.42h-3.268V16.26ZM155.514 31.437l.583-2.49c.195.038.506.155.74.155 1.089 0 1.634-.584 1.945-1.44l.156-.583-4.28-10.778h3.307l1.595 4.747c.312 1.011.584 2.062.856 3.152h.078c.234-1.051.506-2.102.778-3.152l1.362-4.747h3.152l-3.852 11.206c-1.051 2.762-2.218 4.202-4.825 4.202-.7-.039-1.167-.117-1.595-.272Z" fill="#FFFFFF"></path><path d="M14.759 22.633c1.825 0 3.337-1.512 3.337-3.337 0-1.826-1.512-3.338-3.337-3.338-1.826 0-3.338 1.512-3.338 3.338a3.327 3.327 0 0 0 3.338 3.337Z" fill="#80C9BD"></path><path d="M25.398 22.633c1.825 0 3.337-1.512 3.337-3.337 0-1.826-1.512-3.338-3.337-3.338-1.826 0-3.338 1.512-3.338 3.338a3.327 3.327 0 0 0 3.338 3.337Z" fill="#89CA97"></path><path d="m37.236 32.542-.887-.886-4.85-4.85a13.482 13.482 0 0 1-4.693 4.693 13.394 13.394 0 0 1-6.728 1.825c-2.503 0-4.85-.678-6.832-1.877A13.059 13.059 0 0 1 8.605 26.7L3.703 31.5c1.303 1.825 2.868 3.442 4.693 4.746A20.008 20.008 0 0 0 20.078 40c4.329 0 8.292-1.356 11.578-3.703l.886.887a3.305 3.305 0 0 0 4.694 0c1.304-1.252 1.304-3.39 0-4.642Z" fill="url(#:Racqhlsla:)"></path><path d="M6.78 20.026c0-1.147.156-2.242.417-3.338.313-1.2.782-2.346 1.408-3.39a13.484 13.484 0 0 1 4.694-4.693 13.393 13.393 0 0 1 6.727-1.825c2.399 0 4.694.625 6.623 1.773 1.93 1.147 3.599 2.712 4.746 4.641.626 1.095 1.147 2.243 1.46 3.494.261 1.043.418 2.19.418 3.338 0 1.147-.157 2.242-.418 3.338h6.832c.157-1.096.26-2.19.26-3.338 0-1.147-.104-2.242-.26-3.338a19.797 19.797 0 0 0-3.494-8.344c-1.304-1.825-2.92-3.39-4.746-4.693A19.77 19.77 0 0 0 19.974 0 19.765 19.765 0 0 0 8.396 3.703a20.052 20.052 0 0 0-4.693 4.693 19.97 19.97 0 0 0-3.442 8.24A23.373 23.373 0 0 0 0 19.974c0 1.147.104 2.242.26 3.338h6.833a16.725 16.725 0 0 1-.313-3.286Z" fill="url(#:RacqhlslaH1:)"></path><defs><linearGradient gradientUnits="userSpaceOnUse" id=":Racqhlsla:" x1="40.494" x2="4.556" y1="41.664" y2="27.828"><stop offset="0.068" stop-color="#EBE45F"></stop><stop offset="1" stop-color="#6FC8B0"></stop></linearGradient><linearGradient gradientUnits="userSpaceOnUse" id=":RacqhlslaH1:" x1="0.051" x2="40.01" y1="11.699" y2="11.699"><stop stop-color="#72CDAF"></stop><stop offset="1" stop-color="#2F5AD3"></stop></linearGradient></defs></svg>